<svg width="16" height="18" viewBox="0 0 16 18" fill="none" xmlns="http://www.w3.org/2000/svg">
<path d="M15.6909 15.8914C16.1622 16.437 16.0861 17.2474 15.5204 17.7018C15.2811 17.8946 14.9792 18.0002 14.6675 18C14.2853 18 13.9063 17.8424 13.6429 17.5371L7.99957 10.9735L2.35812 17.5025C2.09446 17.8076 1.71564 17.9654 1.33357 17.9654C1.02181 17.9655 0.719928 17.8599 0.480688 17.6672C-0.0851238 17.2127 -0.161371 16.4023 0.310111 15.8567L6.26405 8.96611L0.309111 2.11013C-0.162246 1.56451 -0.0860821 0.75411 0.479855 0.299691C1.04483 -0.155933 1.88522 -0.0826473 2.35728 0.464182L7.99957 6.99182L13.641 0.462816C14.1118 -0.082808 14.9526 -0.156737 15.5184 0.298325C16.0843 0.752744 16.1605 1.56314 15.689 2.10877L9.73508 8.99938L15.6909 15.8914Z" fill="#F8F8F8"/>
</svg>
