<svg width="22" height="22" viewBox="0 0 22 22" fill="none" xmlns="http://www.w3.org/2000/svg">
<path d="M11 18.6154C9.23364 18.6154 7.57376 18.1519 6.13461 17.3408V21.3654C6.13461 21.5808 6.24379 21.7815 6.42464 21.8983C6.60541 22.0153 6.83323 22.0325 7.02964 21.9441L11 20.1575L14.9704 21.9441C15.0535 21.9815 15.1422 22.0001 15.2307 22.0001C15.3512 22.0001 15.4711 21.9658 15.5754 21.8983C15.7562 21.7814 15.8654 21.5808 15.8654 21.3654V17.3408C14.4262 18.1519 12.7664 18.6154 11 18.6154Z" fill="white"/>
<path d="M13.4859 8.37499L14.3591 6.73363L12.5011 6.66922C12.2901 6.66191 12.0966 6.55015 11.9848 6.3711L11 4.79419L10.0152 6.37114C9.90339 6.55019 9.70986 6.66191 9.49893 6.66926L7.64088 6.73367L8.51413 8.37499C8.6133 8.56135 8.6133 8.78478 8.51413 8.97114L7.64088 10.6125L9.49893 10.6769C9.70986 10.6842 9.90344 10.7959 10.0152 10.975L11 12.5519L11.9848 10.9749C12.0966 10.7959 12.2901 10.6842 12.5011 10.6768L14.3591 10.6124L13.4859 8.9711C13.3867 8.78478 13.3867 8.56135 13.4859 8.37499Z" fill="white"/>
<path d="M11 0C6.21767 0 2.32693 3.89069 2.32693 8.67307C2.32693 11.6893 3.87497 14.3504 6.21792 15.9049C6.24117 15.9203 6.26437 15.9357 6.28779 15.9509C6.31611 15.9693 6.34447 15.9875 6.373 16.0055C6.39663 16.0205 6.42039 16.0352 6.44415 16.05C6.47247 16.0675 6.50066 16.0851 6.52919 16.1024C6.56709 16.1253 6.60529 16.1478 6.64357 16.1701C6.67932 16.1909 6.71533 16.2115 6.75142 16.2318C6.77729 16.2464 6.80312 16.261 6.82911 16.2753C6.85764 16.291 6.88622 16.3066 6.91496 16.3219C6.94152 16.3362 6.96824 16.3503 6.99497 16.3642C7.0229 16.3788 7.05074 16.3935 7.07885 16.4078C7.12332 16.4304 7.16809 16.4526 7.21295 16.4746C7.24385 16.4896 7.27491 16.5043 7.30602 16.519C7.33593 16.5331 7.36583 16.5472 7.39591 16.5611C7.42371 16.5738 7.45164 16.5864 7.47962 16.5988C7.50995 16.6124 7.54037 16.6256 7.57088 16.6388C7.59761 16.6503 7.62433 16.662 7.65119 16.6733C7.70365 16.6953 7.75629 16.7169 7.80927 16.7379C7.83256 16.7472 7.85598 16.7559 7.87935 16.765C7.9148 16.7787 7.95029 16.7923 7.98596 16.8056C8.0123 16.8154 8.03881 16.825 8.06528 16.8346C8.10004 16.8471 8.13497 16.8594 8.16991 16.8715C8.19474 16.8801 8.21958 16.8888 8.2445 16.8972C8.30053 16.916 8.35674 16.9344 8.41328 16.9521C8.43245 16.9581 8.45183 16.9638 8.47103 16.9696C8.51284 16.9824 8.55474 16.995 8.5968 17.0071C8.62138 17.0142 8.646 17.0211 8.67067 17.028C8.7099 17.039 8.74921 17.0496 8.78866 17.06C8.8116 17.066 8.83442 17.0722 8.85741 17.078C8.91688 17.0932 8.97656 17.1079 9.03655 17.1218C9.05081 17.1252 9.06525 17.1282 9.07951 17.1314C9.12824 17.1425 9.17714 17.1532 9.22617 17.1634C9.24881 17.1682 9.2715 17.1727 9.29414 17.1772C9.33758 17.186 9.38111 17.1943 9.42481 17.2023C9.44595 17.2062 9.46714 17.2102 9.48836 17.214C9.55097 17.225 9.61375 17.2356 9.67678 17.2453C9.68598 17.2467 9.69517 17.2479 9.70437 17.2493C9.75997 17.2577 9.81574 17.2654 9.8716 17.2728C9.8927 17.2755 9.91393 17.2781 9.93507 17.2807C9.98177 17.2865 10.0285 17.2918 10.0754 17.2968C10.0957 17.2989 10.1158 17.3012 10.1361 17.3032C10.2011 17.3097 10.2664 17.3156 10.3319 17.3206C10.3363 17.321 10.3408 17.3212 10.3452 17.3215C10.407 17.3261 10.4689 17.33 10.531 17.3333C10.5512 17.3345 10.5715 17.3353 10.5918 17.3363C10.6407 17.3385 10.6896 17.3404 10.7388 17.3418C10.7587 17.3424 10.7787 17.3431 10.7987 17.3436C10.8657 17.3451 10.9327 17.3461 11.0001 17.3461C11.0675 17.3461 11.1345 17.3451 11.2015 17.3436C11.2215 17.3431 11.2414 17.3424 11.2614 17.3418C11.3105 17.3404 11.3595 17.3385 11.4084 17.3363C11.4287 17.3353 11.4489 17.3345 11.4692 17.3333C11.5313 17.33 11.5933 17.3262 11.655 17.3215C11.6594 17.3212 11.6639 17.321 11.6683 17.3206C11.7338 17.3156 11.799 17.3097 11.8641 17.3032C11.8844 17.3012 11.9045 17.2989 11.9247 17.2968C11.9717 17.2918 12.0184 17.2864 12.0651 17.2807C12.0863 17.2781 12.1074 17.2755 12.1286 17.2728C12.1845 17.2655 12.2402 17.2577 12.2958 17.2493C12.305 17.2479 12.3142 17.2467 12.3234 17.2453C12.3864 17.2356 12.4492 17.225 12.5118 17.214C12.533 17.2102 12.5542 17.2062 12.5754 17.2023C12.619 17.1943 12.6626 17.1859 12.706 17.1772C12.7287 17.1727 12.7514 17.1681 12.774 17.1634C12.823 17.1532 12.8719 17.1425 12.9206 17.1314C12.9349 17.1282 12.9493 17.1252 12.9636 17.1218C13.0235 17.1079 13.0832 17.0932 13.1427 17.078C13.1657 17.0721 13.1886 17.066 13.2115 17.06C13.2509 17.0496 13.2902 17.0389 13.3295 17.028C13.3541 17.0211 13.3788 17.0142 13.4033 17.0071C13.4454 16.995 13.4873 16.9824 13.5291 16.9696C13.5484 16.9638 13.5677 16.9581 13.5869 16.9521C13.6434 16.9344 13.6996 16.916 13.7556 16.8972C13.7806 16.8888 13.8054 16.8801 13.8302 16.8715C13.8652 16.8594 13.9001 16.8471 13.9349 16.8346C13.9613 16.825 13.9878 16.8154 14.0142 16.8056C14.0498 16.7923 14.0853 16.7787 14.1208 16.765C14.1442 16.7559 14.1676 16.7472 14.1909 16.7379C14.2438 16.7169 14.2964 16.6953 14.3489 16.6733C14.3758 16.6619 14.4025 16.6503 14.4293 16.6387C14.4598 16.6256 14.4902 16.6123 14.5205 16.5988C14.5485 16.5863 14.5764 16.5737 14.6042 16.561C14.6343 16.5472 14.6642 16.5331 14.6941 16.5189C14.7252 16.5043 14.7562 16.4896 14.7871 16.4745C14.8321 16.4526 14.8768 16.4304 14.9212 16.4077C14.9493 16.3934 14.9772 16.3788 15.0051 16.3642C15.0318 16.3502 15.0585 16.3362 15.0851 16.3219C15.1138 16.3065 15.1424 16.291 15.1709 16.2753C15.197 16.2609 15.2228 16.2464 15.2486 16.2318C15.2847 16.2114 15.3207 16.1909 15.3565 16.17C15.3948 16.1477 15.433 16.1252 15.4709 16.1023C15.4994 16.0851 15.5276 16.0675 15.5559 16.0499C15.5797 16.0352 15.6035 16.0205 15.6271 16.0055C15.6556 15.9874 15.6839 15.9692 15.7123 15.9509C15.7356 15.9357 15.7589 15.9203 15.7821 15.9048C18.1251 14.3504 19.6731 11.6893 19.6731 8.67303C19.6731 3.89069 15.7823 0 11 0ZM15.957 10.9135C16.0599 11.1067 16.0558 11.3393 15.9464 11.5288C15.8369 11.7184 15.6375 11.8382 15.4187 11.8458L12.8825 11.9336L11.5383 14.0861C11.4223 14.2717 11.2189 14.3846 11 14.3846C10.7812 14.3846 10.5777 14.2717 10.4618 14.0861L9.11758 11.9336L6.58135 11.8458C6.3626 11.8382 6.16318 11.7184 6.05374 11.5288C5.9443 11.3393 5.94022 11.1067 6.04308 10.9135L7.23508 8.67307L6.04308 6.43268C5.94022 6.23945 5.9443 6.00686 6.05374 5.81732C6.16318 5.62779 6.3626 5.50795 6.58135 5.50039L9.11758 5.41252L10.4618 3.26004C10.5777 3.07441 10.7812 2.96158 11 2.96158C11.2189 2.96158 11.4223 3.07441 11.5383 3.26004L12.8825 5.41252L15.4187 5.50039C15.6375 5.50795 15.8369 5.62779 15.9464 5.81732C16.0558 6.00686 16.0599 6.23945 15.957 6.43268L14.765 8.67307L15.957 10.9135Z" fill="white"/>
</svg>
