<svg width="19" height="19" viewBox="0 0 19 19" fill="none" xmlns="http://www.w3.org/2000/svg">
<path d="M18.1437 18.1438L18.1438 18.1437C18.4187 17.8687 18.4188 17.423 18.1437 17.148C18.1437 17.1479 18.1437 17.1479 18.1437 17.1479L13.2006 12.2048C14.2012 10.9852 14.8083 9.42876 14.8083 7.72914C14.8083 3.82543 11.6329 0.65 7.72917 0.65C3.82543 0.65 0.65 3.82543 0.65 7.72918C0.65 11.6329 3.82543 14.8084 7.72917 14.8084C9.42879 14.8084 10.9852 14.2012 12.2048 13.2006L17.1479 18.1437C17.2853 18.2811 17.4661 18.35 17.6458 18.35C17.8256 18.35 18.0063 18.2811 18.1437 18.1438ZM7.72917 13.4C4.60285 13.4 2.05835 10.8558 2.05835 7.72918C2.05835 4.60254 4.60285 2.05832 7.72917 2.05832C10.8555 2.05832 13.4 4.60251 13.4 7.72918C13.4 10.8558 10.8555 13.4 7.72917 13.4Z" fill="white" stroke="white" stroke-width="0.7"/>
</svg>
